<?xml version="1.0" encoding="iso-8859-1"?>
<!-- Generator: Adobe Illustrator 19.0.0, SVG Export Plug-In . SVG Version: 6.00 Build 0)  -->
<svg version="1.1" id="Capa_1" xmlns="http://www.w3.org/2000/svg" xmlns:xlink="http://www.w3.org/1999/xlink" x="0px" y="0px"
	 viewBox="0 0 512 512" style="enable-background:new 0 0 512 512;" xml:space="preserve" fill="#030104">
<g>
	<g>
		<path d="M95.907,400.492h-0.015c-3.457,5.361-3.94,12.29-1.26,18.062c1.567,3.369,2.769,4.248,2.842,4.292
			c-0.103-0.132,14.971-1.143,48.853-55.21c2.783-4.453,5.552-9.009,8.276-13.638C128.617,366.522,107.758,382.094,95.907,400.492z"
			/>
	</g>
</g>
<g>
	<g>
		<path d="M241.63,239.754c-8.115,20.992-17.153,42.071-26.455,62.037c22.896-5.493,46.348-9.316,68.892-11.602
			C269.814,274.662,254.975,257.42,241.63,239.754z"/>
	</g>
</g>
<g>
	<g>
		<path d="M242.89,93.915c-3.677-6.592-7.427-9.668-9.111-9.668c-0.146,0-0.278,0.015-0.396,0.073
			c-6.899,2.93-18.677,28.564-5.537,71.675c1.465,4.776,3.383,9.712,5.713,14.795C244.399,133.1,248.5,103.978,242.89,93.915z"/>
	</g>
</g>
<g>
	<g>
		<path d="M425.291,337.782c-3.192-6.474-24.623-17.036-70.561-19.643c-0.322-0.029-0.645-0.044-0.967-0.059
			c9.214,8.745,15.059,13.975,15.322,14.194c6.504,5.918,28.198,21.973,42.832,20.244
			C420.994,351.421,426.677,340.574,425.291,337.782z"/>
	</g>
</g>
<g>
	<g>
		<path d="M467,0H45C20.186,0,0,20.186,0,45v422c0,24.814,20.186,45,45,45h422c24.814,0,45-20.186,45-45V45
			C512,20.186,491.814,0,467,0z M415.39,382.313c-31.23,3.794-62.856-24.521-66.387-27.744c-1.729-1.538-17.49-15.615-38.291-36.548
			c-37.896,1.816-77.593,8.379-112.939,19.292c-9.375,18.179-18.618,34.541-27.056,47.871
			c-15.989,25.32-45.736,69.261-75.586,67.471c-6.826-0.439-19.512-3.823-27.7-21.46c-7.09-15.249-5.874-32.813,3.267-46.963
			c20.918-32.461,60.674-55.811,106.304-71.411c17.212-34.131,32.329-70.078,43.931-102.905
			c-9.712-15.571-17.417-30.908-21.768-45.161c-17.271-56.616-1.318-97.925,22.471-108.047c13.652-5.786,33.267-2.886,47.461,22.617
			c12.407,22.251,3.179,71.792-15.176,126.46c19.834,28.901,46.465,58.579,69.126,81.929c11.704-0.278,22.939-0.146,33.384,0.469
			c36.519,2.08,82.778,10.049,95.757,36.299C463.958,348.234,442.747,379.094,415.39,382.313z"/>
	</g>
</g>
<g>
</g>
<g>
</g>
<g>
</g>
<g>
</g>
<g>
</g>
<g>
</g>
<g>
</g>
<g>
</g>
<g>
</g>
<g>
</g>
<g>
</g>
<g>
</g>
<g>
</g>
<g>
</g>
<g>
</g>
</svg>
