<svg viewBox="0 0 512 512" xmlns="http://www.w3.org/2000/svg"><path d="m456.832031 0h-401.664062c-30.421875 0-55.167969 24.746094-55.167969 55.167969v401.667969c0 30.417968 24.746094 55.164062 55.167969 55.164062h401.664062c30.421875 0 55.167969-24.746094 55.167969-55.164062v-401.667969c0-30.421875-24.746094-55.167969-55.167969-55.167969zm-239.015625 325.480469c8.210938 1.09375 13.980469 8.640625 12.886719 16.851562-1.007813 7.539063-7.449219 13.019531-14.851563 13.019531-.660156 0-1.328124-.042968-2-.132812l-60.253906-8.035156c-7.449218-.992188-13.015625-7.347656-13.015625-14.867188v-2.570312c-34.332031-6.972656-60.25-37.386719-60.25-73.746094 0-41.492188 33.757813-75.25 75.25-75.25 41.492188 0 75.25 33.757812 75.25 75.25 0 28.414062-15.835937 53.195312-39.140625 66zm209.457032-19.835938c5.859374 5.855469 5.859374 15.355469 0 21.210938-2.929688 2.929687-6.769532 4.394531-10.605469 4.394531-3.839844 0-7.679688-1.464844-10.609375-4.394531l-49.640625-49.640625-49.644531 49.640625c-2.929688 2.929687-6.769532 4.394531-10.605469 4.394531-3.839844 0-7.679688-1.464844-10.609375-4.394531-5.855469-5.855469-5.855469-15.351563 0-21.210938l49.644531-49.644531-49.644531-49.644531c-5.855469-5.855469-5.855469-15.355469 0-21.210938 5.859375-5.859375 15.355468-5.859375 21.214844 0l49.644531 49.640625 49.640625-49.640625c5.859375-5.859375 15.355468-5.859375 21.214844 0 5.859374 5.855469 5.859374 15.351563 0 21.210938l-49.644532 49.644531zm0 0"/><path d="m155.582031 210.75c-24.949219 0-45.25 20.300781-45.25 45.25s20.300781 45.25 45.25 45.25c24.953125 0 45.25-20.300781 45.25-45.25s-20.296875-45.25-45.25-45.25zm0 0"/></svg>